<svg id="visual" viewBox="0 0 1920 1080" width="1920" height="1080" xmlns="http://www.w3.org/2000/svg" xmlns:xlink="http://www.w3.org/1999/xlink" version="1.1"><rect x="0" y="0" width="1920" height="1080" fill="#001220"></rect><path d="M0 768L35.5 770.7C71 773.3 142 778.7 213.2 789.5C284.3 800.3 355.7 816.7 426.8 814.3C498 812 569 791 640 776.2C711 761.3 782 752.7 853.2 763.2C924.3 773.7 995.7 803.3 1066.8 812C1138 820.7 1209 808.3 1280 803C1351 797.7 1422 799.3 1493.2 788.5C1564.3 777.7 1635.7 754.3 1706.8 741.3C1778 728.3 1849 725.7 1884.5 724.3L1920 723L1920 1081L1884.5 1081C1849 1081 1778 1081 1706.8 1081C1635.7 1081 1564.3 1081 1493.2 1081C1422 1081 1351 1081 1280 1081C1209 1081 1138 1081 1066.8 1081C995.7 1081 924.3 1081 853.2 1081C782 1081 711 1081 640 1081C569 1081 498 1081 426.8 1081C355.7 1081 284.3 1081 213.2 1081C142 1081 71 1081 35.5 1081L0 1081Z" fill="#fa7268"></path><path d="M0 893L35.5 890.5C71 888 142 883 213.2 875C284.3 867 355.7 856 426.8 846.7C498 837.3 569 829.7 640 837C711 844.3 782 866.7 853.2 869.5C924.3 872.3 995.7 855.7 1066.8 841.7C1138 827.7 1209 816.3 1280 818.7C1351 821 1422 837 1493.2 846.3C1564.3 855.7 1635.7 858.3 1706.8 864.7C1778 871 1849 881 1884.5 886L1920 891L1920 1081L1884.5 1081C1849 1081 1778 1081 1706.8 1081C1635.7 1081 1564.3 1081 1493.2 1081C1422 1081 1351 1081 1280 1081C1209 1081 1138 1081 1066.8 1081C995.7 1081 924.3 1081 853.2 1081C782 1081 711 1081 640 1081C569 1081 498 1081 426.8 1081C355.7 1081 284.3 1081 213.2 1081C142 1081 71 1081 35.5 1081L0 1081Z" fill="#eb5967"></path><path d="M0 959L35.5 952.2C71 945.3 142 931.7 213.2 933.3C284.3 935 355.7 952 426.8 950.5C498 949 569 929 640 920.2C711 911.3 782 913.7 853.2 923.5C924.3 933.3 995.7 950.7 1066.8 954.7C1138 958.7 1209 949.3 1280 946.3C1351 943.3 1422 946.7 1493.2 939.2C1564.3 931.7 1635.7 913.3 1706.8 901.7C1778 890 1849 885 1884.5 882.5L1920 880L1920 1081L1884.5 1081C1849 1081 1778 1081 1706.8 1081C1635.7 1081 1564.3 1081 1493.2 1081C1422 1081 1351 1081 1280 1081C1209 1081 1138 1081 1066.8 1081C995.7 1081 924.3 1081 853.2 1081C782 1081 711 1081 640 1081C569 1081 498 1081 426.8 1081C355.7 1081 284.3 1081 213.2 1081C142 1081 71 1081 35.5 1081L0 1081Z" fill="#da3f67"></path><path d="M0 974L35.5 970C71 966 142 958 213.2 958C284.3 958 355.7 966 426.8 966.2C498 966.3 569 958.7 640 958.5C711 958.3 782 965.7 853.2 967.5C924.3 969.3 995.7 965.7 1066.8 962.5C1138 959.3 1209 956.7 1280 958.8C1351 961 1422 968 1493.2 971C1564.3 974 1635.7 973 1706.8 971.8C1778 970.7 1849 969.3 1884.5 968.7L1920 968L1920 1081L1884.5 1081C1849 1081 1778 1081 1706.8 1081C1635.7 1081 1564.3 1081 1493.2 1081C1422 1081 1351 1081 1280 1081C1209 1081 1138 1081 1066.8 1081C995.7 1081 924.3 1081 853.2 1081C782 1081 711 1081 640 1081C569 1081 498 1081 426.8 1081C355.7 1081 284.3 1081 213.2 1081C142 1081 71 1081 35.5 1081L0 1081Z" fill="#c62368"></path></svg>